<?xml version="1.0" standalone="no"?>
<!DOCTYPE svg PUBLIC "-//W3C//DTD SVG 20010904//EN"
 "http://www.w3.org/TR/2001/REC-SVG-20010904/DTD/svg10.dtd">
<svg version="1.0" xmlns="http://www.w3.org/2000/svg"
 width="225.000000pt" height="225.000000pt" viewBox="0 0 225.000000 225.000000"
 preserveAspectRatio="xMidYMid meet">

<g transform="translate(0.000000,225.000000) scale(0.100000,-0.100000)"
fill="#000000" stroke="none">
<path d="M945 2139 c-217 -43 -398 -140 -550 -293 -154 -155 -251 -345 -285
-559 -18 -107 -8 -320 19 -417 91 -332 309 -576 626 -703 135 -53 242 -70 410
-64 165 6 254 27 391 91 126 60 205 115 299 210 154 155 251 346 285 559 18
107 8 320 -19 417 -75 276 -239 492 -477 631 -172 100 -283 130 -494 135 -85
1 -177 -2 -205 -7z m365 -306 c84 -41 162 -119 203 -203 30 -61 32 -72 32
-170 0 -96 -2 -110 -28 -159 -17 -32 -77 -103 -148 -177 -146 -150 -175 -203
-188 -343 -7 -75 -13 -96 -31 -116 -32 -34 -92 -34 -125 0 -22 21 -25 33 -25
97 0 99 22 185 73 282 33 64 63 102 143 182 134 132 154 162 154 231 0 133
-99 232 -233 233 -69 0 -120 -19 -165 -63 -45 -43 -62 -78 -72 -150 -11 -76
-40 -109 -96 -109 -30 0 -44 6 -62 28 -22 25 -24 35 -20 98 10 158 123 302
280 358 41 14 74 18 148 15 82 -3 104 -7 160 -34z m-164 -1291 c81 -65 39
-182 -65 -182 -20 0 -42 11 -63 29 -27 24 -33 36 -33 71 0 35 6 47 33 71 38
34 94 39 128 11z"/>
</g>
</svg>
